<svg width="29" height="29" viewBox="0 0 29 29" fill="none" xmlns="http://www.w3.org/2000/svg">
<path d="M24.6472 4.2848C24.6386 4.18997 24.6115 4.09775 24.5673 4.01342C24.5231 3.92909 24.4627 3.85429 24.3896 3.79329C24.3165 3.7323 24.232 3.6863 24.1412 3.65793C24.0503 3.62956 23.9547 3.61937 23.8599 3.62795L19.449 4.02235C16.3271 4.3196 13.3387 4.67485 10.8882 5.08085C8.4739 5.47815 6.48015 5.93635 5.41875 6.47285C5.14905 6.60915 4.88225 6.77735 4.6836 6.99485C4.55664 7.12423 4.46198 7.28173 4.40731 7.45456C4.35264 7.62739 4.3395 7.81068 4.36895 7.98955C4.44 8.3767 4.701 8.64495 4.93445 8.82185C5.21973 9.02389 5.53026 9.18768 5.8581 9.30905C7.2878 9.876 10.0457 10.4313 14.4465 10.9823C17.5596 11.3724 19.4345 11.7508 20.4002 12.0945C20.4098 12.0979 20.4195 12.1012 20.4292 12.1046C20.303 12.1481 20.158 12.196 19.9884 12.2438C19.4954 12.383 18.8733 12.5193 18.1469 12.6469C16.694 12.9021 14.8713 13.1196 12.9414 13.2849C11.4856 13.4096 9.92825 13.6068 8.60585 13.8577C7.94465 13.9824 7.32985 14.123 6.8122 14.2782C6.30905 14.4275 5.8378 14.6059 5.5014 14.8292C5.3361 14.9394 5.1389 15.1018 5.0113 15.3352C4.93418 15.4734 4.89106 15.6279 4.88551 15.786C4.87996 15.9441 4.91215 16.1012 4.9794 16.2444C5.09877 16.4787 5.28168 16.6747 5.5072 16.8099C5.73186 16.9495 5.97107 17.0643 6.2206 17.1521C7.2878 17.545 9.2424 17.9206 12.3454 18.2744C15.4339 18.6282 17.3407 19.0791 18.4195 19.5489C18.9618 19.7838 19.2242 19.9941 19.3388 20.1376C19.4258 20.2464 19.4142 20.2928 19.4026 20.3363C19.3779 20.4276 19.2837 20.5973 19.0299 20.8293C18.7834 21.054 18.4427 21.2918 18.0207 21.5296C17.1797 22.0052 16.1067 22.4402 15.083 22.7766L11.255 23.9569C11.0712 24.0139 10.9175 24.1415 10.8278 24.3117C10.738 24.4819 10.7196 24.6808 10.7765 24.8646C10.8334 25.0485 10.961 25.2022 11.1313 25.2919C11.3015 25.3816 11.5004 25.4001 11.6842 25.3431L15.5267 24.157C16.6084 23.8032 17.78 23.332 18.7341 22.7926C19.1913 22.5432 19.6193 22.2436 20.0101 21.8994C20.3552 21.5818 20.6742 21.1889 20.8018 20.7162C20.8714 20.4608 20.8778 20.1923 20.8205 19.9339C20.7631 19.6754 20.6438 19.4348 20.4727 19.2328C20.1464 18.8239 19.636 18.4962 18.9966 18.2178C17.7148 17.661 15.6311 17.1912 12.5107 16.8345C9.47585 16.4865 7.6909 16.1342 6.7832 15.8137C6.92896 15.76 7.07645 15.7112 7.22545 15.6673C7.76878 15.5116 8.31949 15.3828 8.87555 15.2816C10.2626 15.0301 11.6611 14.8463 13.0661 14.7306C15.0192 14.5624 16.8883 14.3391 18.3977 14.0752C19.1517 13.9418 19.8274 13.7968 20.3842 13.6387C20.9236 13.4865 21.4181 13.3038 21.7617 13.0703C21.9758 12.9342 22.1476 12.7408 22.2576 12.5121C22.3241 12.3636 22.3531 12.201 22.342 12.0387C22.3309 11.8763 22.28 11.7192 22.1938 11.5812C22.0488 11.3448 21.8313 11.181 21.6341 11.065C21.4253 10.9417 21.173 10.8315 20.8859 10.7286C19.7578 10.3284 17.7394 9.93255 14.6263 9.54395C10.2125 8.99005 7.62855 8.4521 6.39315 7.962C6.23945 7.9011 6.11765 7.84455 6.0205 7.7938C6.0378 7.78442 6.0552 7.77523 6.0727 7.76625C6.905 7.34575 8.6827 6.91365 11.1245 6.51055C13.5286 6.11325 16.4808 5.7609 19.5838 5.46655L23.9904 5.07215C24.0852 5.06358 24.1774 5.03642 24.2617 4.99222C24.3461 4.94802 24.4209 4.88763 24.4819 4.81452C24.5428 4.74141 24.5888 4.65699 24.6172 4.5661C24.6456 4.47521 24.6558 4.37962 24.6472 4.2848Z" fill="#CEB98C"/>
</svg>
