<svg width="32" height="32" viewBox="0 0 32 32" fill="none" xmlns="http://www.w3.org/2000/svg">
<rect width="32" height="32" rx="16" fill="#1E1E1E"/>
<g clip-path="url(#clip0_164_2)">
<path d="M12.8195 15.8689C13.0285 15.2276 13.3092 14.633 13.7107 14.1061C13.7744 14.0226 13.8413 13.9418 13.9057 13.8609C13.7701 13.71 13.6287 13.5638 13.4995 13.4067C13.0932 12.9126 12.8031 12.3556 12.6955 11.7059C12.6277 11.2967 12.636 10.8848 12.6681 10.4725C12.7038 10.0142 12.8601 9.60849 13.1367 9.25246C13.1671 9.21329 13.1982 9.19621 13.2478 9.19262C13.4448 9.17836 13.6221 9.11156 13.7552 8.94918C13.9691 8.68824 13.9108 8.33246 13.6268 8.16121C13.4919 8.07988 13.3442 8.05191 13.1908 8.04677C13.0904 8.04341 13.049 8.01574 13.0502 7.95729C13.0514 7.89846 13.094 7.87302 13.1938 7.87302C15.2758 7.87294 17.3578 7.87296 19.4398 7.87295C19.4448 7.87295 19.4498 7.87287 19.4548 7.873C19.5154 7.87461 19.5809 7.87227 19.5937 7.95592C19.602 8.00964 19.5508 8.0419 19.4608 8.04632C19.4161 8.04852 19.3712 8.04841 19.3267 8.05297C19.1439 8.0717 18.9689 8.11605 18.821 8.23854C18.6148 8.40928 18.5823 8.6791 18.7439 8.89613C18.7801 8.94478 18.825 8.98834 18.872 9.02573C19.0135 9.1382 19.1794 9.17875 19.3526 9.19411C19.3737 9.19599 19.395 9.19627 19.406 9.1968C19.2881 9.42293 19.1603 9.64273 19.0559 9.8742C18.8507 10.329 18.7201 10.8057 18.7472 11.3159C18.771 11.7662 18.9452 12.1345 19.3083 12.3918C19.3851 12.4462 19.3819 12.4207 19.3541 12.5322C19.0368 12.5468 18.7327 12.482 18.4464 12.3384C17.8213 12.0249 17.5128 11.4878 17.4992 10.7733C17.4925 10.42 17.5358 10.0654 17.5611 9.71168C17.5821 9.41793 17.6292 9.12467 17.5846 8.82982C17.5226 8.42004 17.2847 8.16735 16.8909 8.136C16.1828 8.07963 15.5385 8.26087 15.0067 8.77831C14.6117 9.16255 14.4067 9.65229 14.329 10.2051C14.2727 10.6052 14.2844 11.0016 14.4058 11.3889C14.5346 11.8 14.7716 12.1377 15.0895 12.4031C15.3824 12.6475 15.6898 12.8753 16.0048 13.0876C16.5728 13.4703 17.1551 13.8297 17.7243 14.2106C18.2092 14.5351 18.6679 14.8976 19.0707 15.3322C19.5648 15.8652 19.9175 16.4812 20.0493 17.2194C20.0949 17.4744 20.1116 17.7352 20.1415 17.9939C20.2894 17.8928 20.4572 17.8472 20.6204 17.9861C20.7448 18.0919 20.7556 18.2428 20.7404 18.4215C20.6702 18.3192 20.5825 18.3167 20.4929 18.3306C20.4014 18.3448 20.3317 18.4031 20.2816 18.4791C20.1984 18.6052 20.117 18.7336 20.0465 18.8678C19.7681 19.3983 19.444 19.8927 19.0289 20.3172C18.4425 20.9167 17.7387 21.2777 16.9414 21.4477C16.4613 21.5501 15.9754 21.5864 15.4872 21.5551C14.7933 21.5105 14.1456 21.3144 13.5706 20.8851C13.447 20.7929 13.3065 20.717 13.1635 20.6637C12.9162 20.5715 12.6929 20.6369 12.5112 20.838C12.4429 20.9136 12.3801 20.995 12.3184 21.0768C11.9294 21.5927 11.4274 21.7053 10.8497 21.5205C10.6849 21.4678 10.529 21.3833 10.3714 21.308C10.3412 21.2936 10.3218 21.2542 10.2975 21.2263C10.3352 21.2175 10.3751 21.1955 10.4101 21.2021C10.7405 21.2639 11.0473 21.2054 11.3298 21.014C11.6041 20.8282 11.7742 20.5572 11.8945 20.2467C12.0354 19.8827 12.1138 19.5009 12.1786 19.1159C12.2999 18.3948 12.4074 17.6708 12.5419 16.9524C12.6101 16.5883 12.7245 16.2337 12.8195 15.8689ZM13.16 17.0378C13.1909 17.3934 13.2052 17.7516 13.256 18.104C13.3919 19.0478 13.7681 19.8798 14.3761 20.5889C14.8331 21.1219 15.391 21.3986 16.0952 21.296C16.8024 21.1929 17.367 20.8503 17.7406 20.2127C18.2768 19.2978 18.3379 18.3192 17.9831 17.3229C17.6842 16.4835 17.12 15.942 16.2544 15.801C15.958 15.7527 15.6579 15.7285 15.4007 15.9517C15.3599 15.9871 15.3221 15.9662 15.3254 15.9156C15.3308 15.8342 15.3373 15.7474 15.3681 15.6744C15.4488 15.4836 15.6009 15.3682 15.7803 15.2891C15.8057 15.2779 15.8308 15.2662 15.8595 15.2532C15.2577 14.8458 14.6163 14.5151 14.0804 14.0081C14.0608 14.0315 14.0444 14.0505 14.0286 14.0701C13.8107 14.3409 13.6384 14.6409 13.5065 14.9668C13.2406 15.6239 13.1499 16.3137 13.16 17.0378Z" fill="#FEFEFE"/>
<path d="M19.128 10.4751C19.2482 10.065 19.4205 9.68906 19.663 9.35008C19.7654 9.20706 19.8683 9.06456 19.98 8.9093C19.7976 8.9093 19.6297 8.9099 19.4618 8.90911C19.3343 8.90851 19.2094 8.89402 19.0921 8.83414C19.0346 8.80479 19.0038 8.77175 19.023 8.69584C19.0399 8.62863 19.0417 8.55633 19.0436 8.48609C19.0449 8.43694 19.0604 8.40534 19.1068 8.39624C19.2161 8.37486 19.3254 8.35364 19.4351 8.33489C19.4936 8.32489 19.5553 8.32852 19.6116 8.31151C19.7868 8.25854 19.8878 8.09123 19.8649 7.904C19.8432 7.72645 19.6877 7.5914 19.4943 7.58468C19.4148 7.58192 19.3352 7.58402 19.2556 7.58397C19.1788 7.58393 19.1019 7.58396 19.0225 7.58396C18.9004 7.09339 18.5468 6.89494 18.1224 6.78906C17.8111 6.71142 17.4934 6.69755 17.1669 6.69312C17.1669 6.98905 17.1669 7.28221 17.1669 7.57963C16.4066 7.57963 15.6543 7.57963 14.8939 7.57963C14.8939 7.28703 14.8939 6.99387 14.8939 6.68702C14.7022 6.69862 14.5189 6.70452 14.3366 6.72197C14.0635 6.7481 13.7954 6.80097 13.5464 6.9293C13.2929 7.05998 13.1184 7.26206 13.0403 7.55162C13.033 7.57878 13.0066 7.60745 12.9819 7.62108C12.86 7.68838 12.7864 7.79014 12.7776 7.93478C12.7684 8.08631 12.833 8.2001 12.9542 8.28176C12.9737 8.29487 12.9948 8.32123 12.9973 8.34366C13.0161 8.51203 13.0329 8.68078 13.0441 8.84987C13.0465 8.88616 13.0327 8.93266 13.0105 8.96031C12.7775 9.2498 12.5848 9.56214 12.4852 9.93122C12.4129 10.1992 12.3794 10.4737 12.3772 10.7503C12.3751 11.0265 12.3931 11.3028 12.3987 11.5792C12.3993 11.6067 12.3825 11.6442 12.3619 11.6611C12.0213 11.9411 11.6322 12.0998 11.2052 12.1567C11.0752 12.174 10.9434 12.1755 10.8186 12.1838C10.771 12.0978 10.7874 12.0521 10.8587 12.0031C11.2771 11.7161 11.4975 11.3006 11.5527 10.785C11.6158 10.1957 11.4804 9.64076 11.2762 9.09979C11.1385 8.7354 10.9635 8.39142 10.745 8.07261C10.738 8.06239 10.7324 8.05116 10.7251 8.03865C10.8355 8.0218 10.9443 8.0129 11.0494 7.98753C11.2579 7.93726 11.4408 7.83653 11.5723 7.65256C11.7654 7.3825 11.7243 7.0501 11.4725 6.84024C11.297 6.69392 11.0894 6.63686 10.8719 6.612C10.793 6.60297 10.7132 6.60213 10.6338 6.59684C10.5586 6.59183 10.5044 6.54727 10.5102 6.48973C10.5175 6.41674 10.5679 6.39146 10.6306 6.38678C10.6603 6.38456 10.6902 6.38492 10.7201 6.38492C14.2594 6.38486 17.7987 6.38486 21.3379 6.38511C21.3752 6.38511 21.4128 6.38522 21.4495 6.39087C21.5043 6.39931 21.544 6.4314 21.5427 6.49335C21.5414 6.55977 21.4959 6.58932 21.4391 6.5949C21.355 6.60315 21.2701 6.60268 21.1861 6.61179C20.9839 6.6337 20.7903 6.68546 20.6207 6.81016C20.3108 7.03796 20.2722 7.42677 20.5328 7.71534C20.7114 7.91306 20.9411 7.99404 21.1924 8.0211C21.2344 8.02562 21.2767 8.0267 21.3189 8.02969C21.3207 8.02982 21.3222 8.03327 21.3279 8.03988C21.3221 8.05047 21.3161 8.0634 21.3084 8.07502C20.9202 8.65682 20.6511 9.29263 20.5315 9.99325C20.4568 10.4308 20.4582 10.8656 20.6231 11.2858C20.7412 11.5867 20.9322 11.8259 21.1921 12.0005C21.2621 12.0475 21.2852 12.0915 21.2443 12.1739C21.0297 12.1887 20.8134 12.1646 20.6001 12.1104C20.0815 11.9786 19.6393 11.7172 19.3219 11.2561C19.2426 11.141 19.1864 11.0085 19.1179 10.885C19.0658 10.791 19.0596 10.6949 19.0953 10.5936C19.1081 10.5571 19.1157 10.5185 19.128 10.4751Z" fill="#FEFEFE"/>
<path d="M16.395 27.8023C16.3875 27.9462 16.3937 28.0854 16.3698 28.2188C16.3379 28.3967 16.3214 28.574 16.32 28.7542C16.3199 28.7733 16.2969 28.7921 16.2845 28.8111C16.2731 28.7941 16.2566 28.7787 16.2512 28.7597C16.2313 28.6897 16.2267 28.612 16.1951 28.5489C16.1184 28.3953 16.1245 28.2269 16.0973 28.0643C16.084 27.9841 16.0656 27.9046 16.0451 27.826C16.0324 27.7774 16.0023 27.7541 15.9476 27.7512C15.7721 27.7417 15.8126 27.7679 15.777 27.5885C15.6825 27.1119 15.5927 26.6343 15.5005 26.1571C15.3936 25.6035 15.2856 25.05 15.1794 24.4962C15.096 24.0618 15.016 23.6266 14.9317 23.1924C14.8974 23.0156 14.8912 22.8461 14.9315 22.6643C14.9881 22.4093 15.0064 22.1449 15.0411 21.8845C15.0446 21.8589 15.0484 21.8335 15.0531 21.8003C15.7887 21.9031 16.5129 21.8509 17.241 21.6738C17.2602 21.7855 17.2793 21.8968 17.2985 22.008C17.3377 22.234 17.383 22.459 17.413 22.6863C17.4241 22.7705 17.4043 22.8607 17.3902 22.9467C17.347 23.2094 17.2983 23.4712 17.2543 23.7339C17.1913 24.1091 17.1311 24.4848 17.0689 24.8601C17.0066 25.2355 16.9434 25.6107 16.8805 25.986C16.8138 26.3844 16.747 26.7828 16.6802 27.1812C16.6524 27.3471 16.6227 27.5128 16.5979 27.6792C16.5893 27.7369 16.5732 27.7649 16.5099 27.7626C16.4735 27.7613 16.4177 27.7269 16.395 27.8023Z" fill="#FEFEFE"/>
<path d="M16.0036 8.50871C16.3049 8.42534 16.6036 8.38459 16.909 8.42828C16.9334 8.43178 16.9576 8.43836 16.9814 8.44549C17.1417 8.49349 17.1634 8.52394 17.1634 8.69838C17.1634 10.2671 17.1634 11.8359 17.1634 13.4046C17.1634 13.4307 17.1634 13.4568 17.1634 13.4845C17.1548 13.4845 17.1461 13.4874 17.1411 13.4841C16.5987 13.1225 16.0536 12.7654 15.516 12.3962C15.293 12.243 15.0987 12.0497 14.9373 11.8246C14.9128 11.7903 14.8952 11.741 14.8951 11.6985C14.8926 10.9468 14.8926 10.195 14.8949 9.44329C14.895 9.3999 14.9094 9.35031 14.9323 9.31419C15.191 8.90639 15.5545 8.64966 16.0036 8.50871Z" fill="white"/>
<path d="M17.4926 12.1888C17.4926 12.0706 17.4926 11.9603 17.4926 11.85C17.4973 11.8501 17.5021 11.8503 17.5069 11.8504C17.5069 12.4654 17.5069 13.0804 17.5069 13.6953C17.5021 13.6954 17.4973 13.6954 17.4926 13.6954C17.4926 13.1958 17.4926 12.6962 17.4926 12.1888Z" fill="#464646"/>
<path d="M13.395 7.58775C13.4217 7.58267 13.4517 7.5824 13.4816 7.5824C13.8099 7.5824 14.1381 7.58245 14.4663 7.58249C14.4899 7.58249 14.5135 7.58249 14.537 7.58249C14.537 7.58787 14.537 7.59324 14.537 7.59862C14.4978 7.59862 14.4587 7.59862 14.4195 7.59862C14.1061 7.59864 13.7928 7.5988 13.4795 7.59841C13.4524 7.59837 13.4253 7.59468 13.395 7.58775Z" fill="#282828"/>
<path d="M17.8508 7.59848C17.7419 7.59848 17.6406 7.59848 17.5392 7.59848C17.5392 7.59478 17.5392 7.59109 17.5392 7.5874C17.9012 7.5874 18.2631 7.5874 18.625 7.5874C18.625 7.59109 18.6251 7.59478 18.6251 7.59848C18.3695 7.59848 18.1139 7.59848 17.8508 7.59848Z" fill="#282828"/>
<path d="M17.4974 7.08337C17.5009 7.24183 17.5009 7.40512 17.5009 7.56841C17.4986 7.56845 17.4962 7.5685 17.4939 7.56855C17.4939 7.40843 17.4939 7.24832 17.4974 7.08337Z" fill="#464646"/>
<path d="M18.6631 7.57333C18.6656 7.57143 18.6667 7.57834 18.6667 7.57834C18.6667 7.57834 18.6606 7.57523 18.6631 7.57333Z" fill="#282828"/>
<path d="M15.0721 20.4768C15.0698 20.1846 15.0708 19.9 15.0647 19.6157C15.0581 19.3107 15.0463 19.0058 15.0324 18.7011C15.0309 18.6696 15.0063 18.6279 14.9805 18.6108C14.7669 18.4695 14.5358 18.4257 14.2881 18.4856C14.1867 18.5101 14.1633 18.4826 14.1895 18.3738C14.2636 18.0655 14.526 17.8838 14.8264 17.9327C14.8459 17.9358 14.8656 17.9375 14.8905 17.9404C14.8905 16.9535 14.8905 15.9699 14.8905 14.9689C15.0435 15.066 15.1857 15.1563 15.3308 15.2484C15.1826 15.3976 15.0749 15.5661 15.0543 15.7774C15.0456 15.8678 15.0523 15.9675 15.0806 16.0524C15.1427 16.2388 15.3506 16.333 15.4991 16.2169C15.7889 15.9903 16.0922 16.057 16.3985 16.1234C16.6625 16.1805 16.8966 16.3106 17.1073 16.4876C17.1478 16.5216 17.165 16.5562 17.1647 16.6119C17.1623 17.0375 17.1634 17.4631 17.1634 17.8887C17.1634 17.9041 17.1634 17.9195 17.1634 17.9388C17.2586 17.9388 17.3509 17.9269 17.4393 17.9411C17.6602 17.9767 17.835 18.1696 17.8706 18.4006C17.8836 18.4851 17.8626 18.5077 17.785 18.4886C17.5718 18.436 17.3661 18.4542 17.1731 18.5523C17.1731 18.6732 17.1735 18.7904 17.173 18.9076C17.1712 19.3434 17.1691 19.7791 17.1671 20.2148C17.1671 20.2305 17.1675 20.2461 17.1675 20.2618C17.1673 20.5113 17.17 20.5155 16.9731 20.6535C16.5197 20.9711 16.0217 21.0912 15.4837 20.991C15.3594 20.9678 15.2415 20.9024 15.1236 20.8492C15.1003 20.8387 15.0789 20.7959 15.0768 20.7664C15.0702 20.6729 15.073 20.5786 15.0721 20.4768Z" fill="#FEFEFE"/>
<path d="M17.5178 16.979C17.5131 16.9787 17.5122 16.9753 17.5112 16.9718C17.5146 16.9731 17.518 16.9745 17.5178 16.979Z" fill="#474747"/>
</g>
<defs>
<clipPath id="clip0_164_2">
<rect width="12" height="23" fill="white" transform="translate(10 6)"/>
</clipPath>
</defs>
</svg>
